<svg xmlns="http://www.w3.org/2000/svg" viewBox="0 0 900 760" role="img" aria-label="Antonia Gardens">
  <defs>
    <radialGradient id="bg" cx="38%" cy="18%" r="80%">
      <stop offset="0" stop-color="#f2b72d" stop-opacity="0.38"/>
      <stop offset="0.55" stop-color="#fffaf1"/>
      <stop offset="1" stop-color="#e7ddc7"/>
    </radialGradient>
    <filter id="shadow" x="-20%" y="-20%" width="140%" height="140%">
      <feDropShadow dx="0" dy="22" stdDeviation="22" flood-color="#17221c" flood-opacity="0.2"/>
    </filter>
  </defs>
  <rect width="900" height="760" fill="url(#bg)"/>
  <path d="M460 330 C475 430 430 570 390 725" stroke="#294236" stroke-width="34" stroke-linecap="round" fill="none"/>
  <path d="M428 476 C300 420 220 490 145 620" stroke="#294236" stroke-width="25" stroke-linecap="round" fill="none" opacity="0.82"/>
  <path d="M452 508 C595 438 708 498 775 632" stroke="#294236" stroke-width="25" stroke-linecap="round" fill="none" opacity="0.82"/>
  <g filter="url(#shadow)">
    <ellipse cx="340" cy="220" rx="105" ry="158" fill="#fff3bd" opacity="0.97" transform="rotate(-34 340 220)"/>
    <ellipse cx="500" cy="220" rx="105" ry="158" fill="#f2b72d" opacity="0.96" transform="rotate(34 500 220)"/>
    <ellipse cx="420" cy="145" rx="108" ry="162" fill="#fff3bd" opacity="0.98" transform="rotate(0 420 145)"/>
    <ellipse cx="420" cy="310" rx="128" ry="170" fill="#f2b72d" opacity="0.96" transform="rotate(180 420 310)"/>
    <ellipse cx="305" cy="345" rx="84" ry="128" fill="#fff3bd" opacity="0.96" transform="rotate(-72 305 345)"/>
    <ellipse cx="535" cy="345" rx="84" ry="128" fill="#f2b72d" opacity="0.96" transform="rotate(72 535 345)"/>
    <circle cx="420" cy="296" r="76" fill="#fff3bd" opacity="0.68"/>
    <circle cx="420" cy="296" r="36" fill="#ffe8bf" opacity="0.88"/>
  </g>
  <rect x="42" y="606" width="520" height="96" rx="28" fill="rgba(255,255,255,0.78)"/>
  <text x="68" y="660" fill="#294236" font-size="48" font-family="Arial, sans-serif" font-weight="800">Antonia Gardens</text>
  <text x="70" y="696" fill="#64736b" font-size="21" font-family="Arial, sans-serif" font-weight="700">Tessa source fallback</text>
</svg>