<svg xmlns="http://www.w3.org/2000/svg" viewBox="0 0 800 680" role="img" aria-label="Sweet Sara">
  <defs>
    <radialGradient id="bg" cx="36%" cy="20%" r="75%">
      <stop offset="0" stop-color="#ffe1e9" stop-opacity="0.65"/>
      <stop offset="0.55" stop-color="#fffaf1"/>
      <stop offset="1" stop-color="#e7ddc7"/>
    </radialGradient>
    <filter id="shadow" x="-20%" y="-20%" width="140%" height="140%">
      <feDropShadow dx="0" dy="20" stdDeviation="22" flood-color="#17221c" flood-opacity="0.18"/>
    </filter>
  </defs>
  <rect width="800" height="680" fill="url(#bg)"/>
  <path d="M402 320 C415 405 390 505 362 640" stroke="#315944" stroke-width="30" stroke-linecap="round" fill="none"/>
  <path d="M388 430 C285 405 210 455 156 542" stroke="#315944" stroke-width="24" stroke-linecap="round" fill="none" opacity="0.82"/>
  <path d="M400 464 C506 425 603 456 661 544" stroke="#315944" stroke-width="24" stroke-linecap="round" fill="none" opacity="0.82"/>
  <g filter="url(#shadow)">
    <ellipse cx="310" cy="185" rx="95" ry="145" fill="#f7a0bc" opacity="0.96" transform="rotate(-32 310 185)"/><ellipse cx="430" cy="185" rx="95" ry="145" fill="#ffe1e9" opacity="0.96" transform="rotate(32 430 185)"/><ellipse cx="370" cy="125" rx="95" ry="145" fill="#f7a0bc" opacity="0.96" transform="rotate(0 370 125)"/><ellipse cx="370" cy="245" rx="112" ry="150" fill="#ffe1e9" opacity="0.96" transform="rotate(180 370 245)"/><ellipse cx="285" cy="285" rx="72" ry="118" fill="#f7a0bc" opacity="0.96" transform="rotate(-70 285 285)"/><ellipse cx="455" cy="285" rx="72" ry="118" fill="#ffe1e9" opacity="0.96" transform="rotate(70 455 285)"/>
    <circle cx="370" cy="238" r="62" fill="#f7a0bc" opacity="0.9"/>
    <circle cx="370" cy="238" r="26" fill="#ffe8bf" opacity="0.86"/>
  </g>
  <text x="52" y="600" fill="#294236" font-size="48" font-family="Arial, sans-serif" font-weight="800">Sweet Sara</text>
  <text x="54" y="638" fill="#64736b" font-size="22" font-family="Arial, sans-serif" font-weight="700">Tessa Shop B2B</text>
</svg>
